<svg width="3902" height="5459" viewBox="0 0 3902 5459" fill="none" xmlns="http://www.w3.org/2000/svg">
<g filter="url(#filter0_f_45_3)">
<path d="M2949 1167C2949 1369.69 2774.61 1534 2559.5 1534C2344.39 1534 2170 1369.69 2170 1167C2170 964.311 2344.39 800 2559.5 800C2774.61 800 2949 964.311 2949 1167Z" fill="#3962CB"/>
</g>
<path d="M2559.5 1534.5C2774.86 1534.5 2949.5 1369.99 2949.5 1167C2949.5 964.008 2774.86 799.5 2559.5 799.5C2344.14 799.5 2169.5 964.008 2169.5 1167C2169.5 1369.99 2344.14 1534.5 2559.5 1534.5Z" stroke="white"/>
<g filter="url(#filter1_f_45_3)">
<path d="M1579 3859C1579 4061.69 1404.61 4226 1189.5 4226C974.385 4226 800 4061.69 800 3859C800 3656.31 974.385 3492 1189.5 3492C1404.61 3492 1579 3656.31 1579 3859Z" fill="#3962CB"/>
</g>
<path d="M1189.5 4226.5C1404.86 4226.5 1579.5 4061.99 1579.5 3859C1579.5 3656.01 1404.86 3491.5 1189.5 3491.5C974.137 3491.5 799.5 3656.01 799.5 3859C799.5 4061.99 974.137 4226.5 1189.5 4226.5Z" stroke="white"/>
<g filter="url(#filter2_f_45_3)">
<path d="M1909 2113.5C1909 2302.66 1684.92 2456 1408.5 2456C1132.08 2456 908 2302.66 908 2113.5C908 1924.34 1132.08 1771 1408.5 1771C1684.92 1771 1909 1924.34 1909 2113.5Z" fill="#8A4EAF"/>
</g>
<path d="M1908.5 2113.5C1908.5 2207.87 1852.61 2293.35 1762.12 2355.27C1671.65 2417.19 1546.62 2455.5 1408.5 2455.5C1270.38 2455.5 1145.35 2417.19 1054.88 2355.27C964.394 2293.35 908.5 2207.87 908.5 2113.5C908.5 2019.13 964.394 1933.65 1054.88 1871.73C1145.35 1809.81 1270.38 1771.5 1408.5 1771.5C1546.62 1771.5 1671.65 1809.81 1762.12 1871.73C1852.61 1933.65 1908.5 2019.13 1908.5 2113.5Z" stroke="white"/>
<g filter="url(#filter3_f_45_3)">
<path d="M3102 2970.5C3102 3159.66 2877.92 3313 2601.5 3313C2325.08 3313 2101 3159.66 2101 2970.5C2101 2781.34 2325.08 2628 2601.5 2628C2877.92 2628 3102 2781.34 3102 2970.5Z" fill="#8A4EAF"/>
</g>
<path d="M3101.5 2970.5C3101.5 3064.87 3045.61 3150.35 2955.12 3212.27C2864.65 3274.19 2739.62 3312.5 2601.5 3312.5C2463.38 3312.5 2338.35 3274.19 2247.88 3212.27C2157.39 3150.35 2101.5 3064.87 2101.5 2970.5C2101.5 2876.13 2157.39 2790.65 2247.88 2728.73C2338.35 2666.81 2463.38 2628.5 2601.5 2628.5C2739.62 2628.5 2864.65 2666.81 2955.12 2728.73C3045.61 2790.65 3101.5 2876.13 3101.5 2970.5Z" stroke="white"/>
<g filter="url(#filter4_f_45_3)">
<path d="M2974 4292C2974 4494.69 2799.61 4659 2584.5 4659C2369.39 4659 2195 4494.69 2195 4292C2195 4089.31 2369.39 3925 2584.5 3925C2799.61 3925 2974 4089.31 2974 4292Z" fill="#3962CB"/>
</g>
<path d="M2584.5 4659.5C2799.86 4659.5 2974.5 4494.99 2974.5 4292C2974.5 4089.01 2799.86 3924.5 2584.5 3924.5C2369.14 3924.5 2194.5 4089.01 2194.5 4292C2194.5 4494.99 2369.14 4659.5 2584.5 4659.5Z" stroke="white"/>
<defs>
<filter id="filter0_f_45_3" x="1370" y="0" width="2379" height="2334" filterUnits="userSpaceOnUse" color-interpolation-filters="sRGB">
<feFlood flood-opacity="0" result="BackgroundImageFix"/>
<feBlend mode="normal" in="SourceGraphic" in2="BackgroundImageFix" result="shape"/>
<feGaussianBlur stdDeviation="400" result="effect1_foregroundBlur_45_3"/>
</filter>
<filter id="filter1_f_45_3" x="0" y="2692" width="2379" height="2334" filterUnits="userSpaceOnUse" color-interpolation-filters="sRGB">
<feFlood flood-opacity="0" result="BackgroundImageFix"/>
<feBlend mode="normal" in="SourceGraphic" in2="BackgroundImageFix" result="shape"/>
<feGaussianBlur stdDeviation="400" result="effect1_foregroundBlur_45_3"/>
</filter>
<filter id="filter2_f_45_3" x="108" y="971" width="2601" height="2285" filterUnits="userSpaceOnUse" color-interpolation-filters="sRGB">
<feFlood flood-opacity="0" result="BackgroundImageFix"/>
<feBlend mode="normal" in="SourceGraphic" in2="BackgroundImageFix" result="shape"/>
<feGaussianBlur stdDeviation="400" result="effect1_foregroundBlur_45_3"/>
</filter>
<filter id="filter3_f_45_3" x="1301" y="1828" width="2601" height="2285" filterUnits="userSpaceOnUse" color-interpolation-filters="sRGB">
<feFlood flood-opacity="0" result="BackgroundImageFix"/>
<feBlend mode="normal" in="SourceGraphic" in2="BackgroundImageFix" result="shape"/>
<feGaussianBlur stdDeviation="400" result="effect1_foregroundBlur_45_3"/>
</filter>
<filter id="filter4_f_45_3" x="1395" y="3125" width="2379" height="2334" filterUnits="userSpaceOnUse" color-interpolation-filters="sRGB">
<feFlood flood-opacity="0" result="BackgroundImageFix"/>
<feBlend mode="normal" in="SourceGraphic" in2="BackgroundImageFix" result="shape"/>
<feGaussianBlur stdDeviation="400" result="effect1_foregroundBlur_45_3"/>
</filter>
</defs>
</svg>
