<svg width="52" height="52" viewBox="0 0 52 52" fill="none" xmlns="http://www.w3.org/2000/svg">
<path d="M26 4.28632C23.1855 4.28632 20.3987 4.84066 17.7985 5.9177C15.1982 6.99474 12.8356 8.57338 10.8455 10.5635C6.82633 14.5827 4.56836 20.0339 4.56836 25.7179C4.56836 35.1907 10.7192 43.2276 19.2276 46.078C20.2992 46.2494 20.6421 45.5851 20.6421 45.0064V41.3845C14.7055 42.6704 13.4411 38.5126 13.4411 38.5126C12.4552 36.0266 11.0621 35.3622 11.0621 35.3622C9.11186 34.0334 11.2122 34.0763 11.2122 34.0763C13.3553 34.2263 14.4912 36.2837 14.4912 36.2837C16.3558 39.5413 19.5062 38.5769 20.7278 38.0626C20.9207 36.6695 21.4779 35.7265 22.078 35.1907C17.3202 34.6549 12.3266 32.8118 12.3266 24.6464C12.3266 22.2674 13.141 20.36 14.5341 18.8384C14.3197 18.3026 13.5696 16.0737 14.7484 13.1804C14.7484 13.1804 16.5486 12.6018 20.6421 15.3665C22.3352 14.895 24.1783 14.6592 26 14.6592C27.8217 14.6592 29.6648 14.895 31.3579 15.3665C35.4513 12.6018 37.2516 13.1804 37.2516 13.1804C38.4303 16.0737 37.6802 18.3026 37.4659 18.8384C38.859 20.36 39.6734 22.2674 39.6734 24.6464C39.6734 32.8332 34.6584 34.6335 29.8791 35.1693C30.6506 35.8337 31.3579 37.141 31.3579 39.1341V45.0064C31.3579 45.5851 31.7008 46.2709 32.7938 46.078C41.3022 43.2061 47.4316 35.1907 47.4316 25.7179C47.4316 22.9035 46.8773 20.1166 45.8002 17.5164C44.7232 14.9162 43.1445 12.5536 41.1544 10.5635C39.1643 8.57338 36.8017 6.99474 34.2015 5.9177C31.6013 4.84066 28.8144 4.28632 26 4.28632Z" fill="#7E85BE"/>
</svg>
