<svg width="68" height="68" viewBox="0 0 68 68" fill="none" xmlns="http://www.w3.org/2000/svg">
<path d="M33.9998 5.66667C30.279 5.66667 26.5947 6.39954 23.1571 7.82342C19.7196 9.2473 16.5961 11.3343 13.9651 13.9653C8.65161 19.2788 5.6665 26.4855 5.6665 34C5.6665 46.5233 13.7982 57.1483 25.0465 60.9167C26.4632 61.1433 26.9165 60.265 26.9165 59.5V54.7117C19.0682 56.4117 17.3965 50.915 17.3965 50.915C16.0932 47.6283 14.2515 46.75 14.2515 46.75C11.6732 44.9933 14.4498 45.05 14.4498 45.05C17.2832 45.2483 18.7848 47.9683 18.7848 47.9683C21.2498 52.275 25.4148 51 27.0298 50.32C27.2848 48.4783 28.0215 47.2317 28.8148 46.5233C22.5248 45.815 15.9232 43.3783 15.9232 32.5833C15.9232 29.4383 16.9998 26.9167 18.8415 24.905C18.5582 24.1967 17.5665 21.25 19.1248 17.425C19.1248 17.425 21.5048 16.66 26.9165 20.315C29.1548 19.6917 31.5915 19.38 33.9998 19.38C36.4082 19.38 38.8448 19.6917 41.0832 20.315C46.4948 16.66 48.8748 17.425 48.8748 17.425C50.4332 21.25 49.4415 24.1967 49.1582 24.905C50.9998 26.9167 52.0765 29.4383 52.0765 32.5833C52.0765 43.4067 45.4465 45.7867 39.1282 46.495C40.1482 47.3733 41.0832 49.1017 41.0832 51.7367V59.5C41.0832 60.265 41.5365 61.1717 42.9815 60.9167C54.2298 57.12 62.3332 46.5233 62.3332 34C62.3332 30.2792 61.6003 26.5949 60.1764 23.1573C58.7525 19.7197 56.6655 16.5963 54.0345 13.9653C51.4035 11.3343 48.2801 9.2473 44.8425 7.82342C41.405 6.39954 37.7206 5.66667 33.9998 5.66667Z" fill="#7E85BE"/>
</svg>
