<svg width="68" height="68" viewBox="0 0 68 68" fill="none" xmlns="http://www.w3.org/2000/svg">
<path d="M34 5.6665C30.2792 5.6665 26.5949 6.39937 23.1573 7.82325C19.7197 9.24713 16.5963 11.3342 13.9653 13.9651C8.65177 19.2787 5.66666 26.4854 5.66666 33.9998C5.66666 46.5232 13.7983 57.1482 25.0467 60.9165C26.4633 61.1432 26.9167 60.2648 26.9167 59.4998V54.7115C19.0683 56.4115 17.3967 50.9148 17.3967 50.9148C16.0933 47.6282 14.2517 46.7498 14.2517 46.7498C11.6733 44.9932 14.45 45.0498 14.45 45.0498C17.2833 45.2482 18.785 47.9682 18.785 47.9682C21.25 52.2748 25.415 50.9998 27.03 50.3198C27.285 48.4782 28.0217 47.2315 28.815 46.5232C22.525 45.8148 15.9233 43.3782 15.9233 32.5832C15.9233 29.4382 17 26.9165 18.8417 24.9048C18.5583 24.1965 17.5667 21.2498 19.125 17.4248C19.125 17.4248 21.505 16.6598 26.9167 20.3148C29.155 19.6915 31.5917 19.3798 34 19.3798C36.4083 19.3798 38.845 19.6915 41.0833 20.3148C46.495 16.6598 48.875 17.4248 48.875 17.4248C50.4333 21.2498 49.4417 24.1965 49.1583 24.9048C51 26.9165 52.0767 29.4382 52.0767 32.5832C52.0767 43.4065 45.4467 45.7865 39.1283 46.4948C40.1483 47.3732 41.0833 49.1015 41.0833 51.7365V59.4998C41.0833 60.2648 41.5367 61.1715 42.9817 60.9165C54.23 57.1198 62.3333 46.5232 62.3333 33.9998C62.3333 30.2791 61.6005 26.5947 60.1766 23.1571C58.7527 19.7196 56.6657 16.5961 54.0347 13.9651C51.4037 11.3342 48.2803 9.24713 44.8427 7.82325C41.4051 6.39937 37.7208 5.6665 34 5.6665Z" fill="#7E85BE"/>
</svg>
