<svg width="84" height="84" viewBox="0 0 84 84" fill="none" xmlns="http://www.w3.org/2000/svg">
<g clip-path="url(#clip0_323_62)">
<mask id="mask0_323_62" style="mask-type:luminance" maskUnits="userSpaceOnUse" x="20" y="9" width="44" height="66">
<path d="M20.0156 9.1875H63.7744V74.8125H20.0156V9.1875Z" fill="white"/>
</mask>
<g mask="url(#mask0_323_62)">
<path d="M30.9576 74.8125C36.9951 74.8125 41.895 69.9126 41.895 63.8751V52.9374H30.9576C24.9201 52.9374 20.0199 57.8376 20.0199 63.8751C20.0199 69.9126 24.9201 74.8125 30.9576 74.8125Z" fill="#0ACF83"/>
<path d="M20.0199 42C20.0199 35.9625 24.9201 31.0626 30.9576 31.0626H41.895V52.9374H30.9576C24.9201 52.9374 20.0199 48.0375 20.0199 42Z" fill="#A259FF"/>
<path d="M20.0199 20.1249C20.0199 14.0874 24.9201 9.1875 30.9576 9.1875H41.895V31.0626H30.9576C24.9201 31.0626 20.0199 26.1624 20.0199 20.1249Z" fill="#F24E1E"/>
<path d="M41.895 9.1875H52.8324C58.8699 9.1875 63.7701 14.0874 63.7701 20.1249C63.7701 26.1624 58.8699 31.0626 52.8324 31.0626H41.895V9.1875Z" fill="#FF7262"/>
<path d="M63.7701 42C63.7701 48.0375 58.8699 52.9374 52.8324 52.9374C46.7949 52.9374 41.895 48.0375 41.895 42C41.895 35.9625 46.7949 31.0626 52.8324 31.0626C58.8699 31.0626 63.7701 35.9625 63.7701 42Z" fill="#1ABCFE"/>
</g>
</g>
<defs>
<clipPath id="clip0_323_62">
<rect width="84" height="84" fill="white"/>
</clipPath>
</defs>
</svg>
