<svg width="84" height="84" viewBox="0 0 84 84" fill="none" xmlns="http://www.w3.org/2000/svg">
<path d="M64.3125 0H19.6875C8.81439 0 0 8.81439 0 19.6875V64.3125C0 75.1856 8.81439 84 19.6875 84H64.3125C75.1856 84 84 75.1856 84 64.3125V19.6875C84 8.81439 75.1856 0 64.3125 0Z" fill="#4353FF"/>
<path d="M55.4876 33.9399C55.4876 33.9399 50.9545 48.1418 50.6195 49.3477C50.4856 48.1642 47.1808 22.6406 47.1808 22.6406C39.4544 22.6406 35.3456 28.1338 33.157 33.9399C33.157 33.9399 27.6416 48.1865 27.195 49.37C27.1727 48.2534 26.3465 34.0738 26.3465 34.0738C25.8772 26.9502 19.3791 22.6406 14.1094 22.6406L20.4514 61.2944C28.5347 61.2721 32.8893 55.8013 35.1668 49.9731C35.1668 49.9731 40.0125 37.401 40.2137 36.8429C40.2583 37.3787 43.6971 61.2944 43.6971 61.2944C51.8031 61.2944 56.1799 56.1809 58.5244 50.5759L69.8906 22.6406C61.8739 22.6406 57.6535 28.1115 55.4876 33.9399Z" fill="white"/>
</svg>
